<?xml version="1.0" standalone="no"?>
<!DOCTYPE svg PUBLIC "-//W3C//DTD SVG 20010904//EN"
 "http://www.w3.org/TR/2001/REC-SVG-20010904/DTD/svg10.dtd">
<svg version="1.0" xmlns="http://www.w3.org/2000/svg"
 width="50px" height="39px" viewBox="0 0 1500.000000 1170.000000"
 preserveAspectRatio="xMidYMid meet">
<metadata>
Created by potrace 1.15, written by Peter Selinger 2001-2017
</metadata>
<g transform="translate(0.000000,1170.000000) scale(0.100000,-0.100000)"
fill="#000000" stroke="none">
<path d="M300 5850 l0 -5550 7200 0 7200 0 0 5550 0 5550 -7200 0 -7200 0 0
-5550z m13948 5201 c48 -25 87 -66 107 -114 14 -34 15 -521 15 -5087 0 -4255
-2 -5055 -13 -5082 -20 -48 -64 -96 -108 -118 -38 -20 -108 -20 -6749 -20
-6641 0 -6711 0 -6749 20 -44 22 -88 70 -108 118 -20 49 -20 10115 0 10164 20
47 64 96 106 118 35 19 152 19 6749 20 6586 0 6713 0 6750 -19z"/>
<path d="M13712 10786 c-126 -41 -208 -155 -206 -286 1 -110 54 -199 154 -258
40 -24 55 -27 140 -27 85 0 100 3 140 27 103 61 154 148 154 263 -1 159 -118
282 -278 291 -36 2 -79 -2 -104 -10z"/>
<path d="M1192 10706 c-126 -41 -208 -155 -206 -286 1 -87 32 -157 95 -214 58
-52 121 -76 199 -76 78 0 141 24 199 76 65 59 95 127 95 219 -1 159 -118 282
-278 291 -36 2 -79 -2 -104 -10z"/>
<path d="M8410 9254 c-110 -16 -176 -30 -245 -51 -677 -211 -1125 -1099 -1264
-2503 -69 -700 -62 -1564 19 -2215 121 -973 410 -1674 835 -2024 463 -381
1107 -360 1630 54 l75 59 0 465 0 464 -27 -24 c-15 -13 -57 -51 -94 -85 -388
-357 -699 -459 -991 -326 -398 182 -588 755 -649 1952 -23 455 -12 1335 22
1765 77 986 287 1490 672 1620 289 97 601 -14 925 -329 l72 -70 0 446 0 446
-37 30 c-134 105 -357 228 -504 276 -136 46 -322 66 -439 50z"/>
<path d="M1960 5725 l0 -3445 390 0 390 0 -5 188 c-10 376 -48 4792 -41 4799
3 4 10 2 15 -3 7 -7 426 -1220 707 -2049 78 -230 61 -206 146 -203 70 3 72 4
81 33 10 32 22 67 312 915 300 875 391 1140 420 1225 31 91 32 92 45 79 10
-10 -14 -2906 -36 -4507 l-6 -477 391 0 391 0 0 3445 0 3445 -343 0 -343 0
-13 -37 c-26 -76 -878 -2423 -893 -2463 l-10 -25 -13 35 c-8 19 -98 267 -200
550 -286 790 -591 1629 -650 1790 l-53 145 -341 3 -341 2 0 -3445z"/>
<path d="M10600 9156 c0 -8 27 -178 59 -378 121 -743 298 -1828 596 -3653 108
-660 207 -1270 221 -1355 14 -85 70 -429 124 -765 55 -335 107 -656 116 -712
l17 -103 273 0 272 0 6 28 c5 23 87 522 416 2542 51 312 257 1577 330 2025
147 904 192 1175 280 1720 55 336 102 622 104 638 l6 27 -415 0 -415 0 -5 -22
c-2 -13 -86 -682 -185 -1488 -99 -806 -225 -1829 -280 -2275 -55 -445 -100
-816 -100 -824 0 -8 -2 -12 -5 -10 -5 5 -79 595 -395 3114 -99 792 -182 1455
-185 1473 l-6 32 -414 0 c-350 0 -415 -2 -415 -14z"/>
<path d="M13653 1553 c-23 -8 -65 -34 -91 -58 -157 -141 -116 -400 77 -488 64
-30 178 -30 242 0 146 67 214 244 149 391 -28 65 -102 134 -167 156 -57 20
-154 19 -210 -1z"/>
<path d="M1099 1477 c-75 -28 -137 -87 -170 -162 -65 -143 5 -322 150 -388 64
-30 178 -30 242 0 106 48 172 152 173 268 0 114 -51 203 -153 263 -36 21 -60
26 -125 29 -51 2 -94 -2 -117 -10z"/>
</g>
</svg>
